
<svg xmlns="http://www.w3.org/2000/svg" role="img" version="1.1" id="图层_1" xmlns:xlink="http://www.w3.org/1999/xlink" x="0px" y="0px"
	 width="252.7px" height="238.7px" viewBox="0 0 252.7 238.7" style="enable-background:new 0 0 252.7 238.7;" xml:space="preserve"
	><title>Bit2AtomBot</title>
<style type="text/css">
	.st0{fill:#64FF00;}
</style>
<rect x="12.1" y="11" class="st0" width="27" height="9"/>
<rect x="12.1" y="29" class="st0" width="27" height="9"/>
<rect x="30.1" y="38" class="st0" width="9" height="189"/>
<rect x="48.1" y="29" class="st0" width="72" height="9"/>
<rect x="48.1" y="38" class="st0" width="9" height="189"/>
<rect x="84.1" y="11" class="st0" width="9" height="45"/>
<rect x="66.1" y="56" class="st0" width="45" height="9"/>
<rect x="102.1" y="65" class="st0" width="9" height="108"/>
<rect x="66.1" y="164" class="st0" width="36" height="9"/>
<rect x="66.1" y="110" class="st0" width="36" height="9"/>
<rect x="102.1" y="110" class="st0" width="18" height="9"/>
<rect x="120.1" y="110" class="st0" width="9" height="117"/>
<rect x="120.1" y="29" class="st0" width="9" height="72"/>
<rect x="138.1" y="11" class="st0" width="9" height="216"/>
<rect x="138.1" y="11" class="st0" width="99" height="9"/>
<rect x="156.1" y="20" class="st0" width="9" height="135"/>
<rect x="156.1" y="29" class="st0" width="63" height="9"/>
<rect x="210.1" y="38" class="st0" width="9" height="180"/>
<rect x="156.1" y="218" class="st0" width="63" height="9"/>
<rect x="156.1" y="83" class="st0" width="54" height="9"/>
<rect x="156.1" y="137" class="st0" width="54" height="9"/>
<rect x="138.1" y="164" class="st0" width="63" height="9"/>
<rect x="228.1" y="137" class="st0" width="9" height="90"/>
</svg>
